<svg width="20" height="17" viewBox="0 0 20 17" fill="none" xmlns="http://www.w3.org/2000/svg">
<path d="M7.2082 15.1924C7.63679 15.1924 7.98423 14.8898 7.98423 14.5165C7.98423 14.1433 7.63679 13.8407 7.2082 13.8407C6.77961 13.8407 6.43217 14.1433 6.43217 14.5165C6.43217 14.8898 6.77961 15.1924 7.2082 15.1924Z" stroke="#27DD00" stroke-width="2" stroke-linecap="round" stroke-linejoin="round"/>
<path d="M15.7445 15.1924C16.1731 15.1924 16.5205 14.8898 16.5205 14.5165C16.5205 14.1433 16.1731 13.8407 15.7445 13.8407C15.3159 13.8407 14.9684 14.1433 14.9684 14.5165C14.9684 14.8898 15.3159 15.1924 15.7445 15.1924Z" stroke="#27DD00" stroke-width="2" stroke-linecap="round" stroke-linejoin="round"/>
<path d="M1 1H4.1041L6.18385 10.0493C6.25481 10.3605 6.44918 10.64 6.73292 10.8389C7.01666 11.0378 7.37171 11.1435 7.7359 11.1374H15.2789C15.643 11.1435 15.9981 11.0378 16.2818 10.8389C16.5656 10.64 16.7599 10.3605 16.8309 10.0493L18.0725 4.37913H4.88012" stroke="#27DD00" stroke-width="2" stroke-linecap="round" stroke-linejoin="round"/>
</svg>
